<?xml version="1.0" encoding="UTF-8"?><svg id="a" xmlns="http://www.w3.org/2000/svg" viewBox="0 0 1080 1080"><defs><style>.b{stroke:#faba16;}.b,.c{stroke-miterlimit:10;}.b,.d{fill:#faba16;}.c{font-family:CaviarDreams, Caviar Dreams;font-size:45.25px;stroke:#1d1d1b;stroke-width:.75px;}.c,.e{fill:#1d1d1b;}.f{letter-spacing:.05em;}.g{letter-spacing:.04em;}</style></defs><polygon class="d" points="263.07 456.04 356.29 506.1 357.15 688.65 192.29 689.52 193.58 589.39 219.91 568.24 220.34 658.44 327.37 658.01 327.37 522.5 262.2 488.4 263.07 456.04"/><polygon class="e" points="93.91 498.78 93.91 535.47 260.93 430.6 261.36 390.46 93.91 498.78"/><polygon class="e" points="94.35 566.97 93.91 689.54 122.83 689.54 123.69 585.53 220.36 522.52 220.36 484.97 94.35 566.97"/><g><path class="e" d="M654.43,602.36c-8.89,6.78-17.18,13.07-25.44,19.4-5.24,4.02-10.52,7.99-15.6,12.21-2.08,1.73-3.39,1.53-5.43-.06-12.33-9.63-24.78-19.11-37.2-28.63-.98-.75-2.01-1.45-3.6-2.58,0,21.81,0,64.12,0,64.12l-.8,.2c-1.88-3.61-3.79-7.2-5.65-10.82-5.48-10.73-10.93-21.47-16.41-32.2-.65-1.28-1.45-2.49-1.45-4.01,0-22,0-44,0-66.89,7.82,5.96,15.09,11.46,22.31,17.01,14.25,10.95,28.54,21.85,42.65,32.97,2.58,2.04,4.05,1.29,6.19-.36,20.12-15.58,40.3-31.08,60.48-46.59,1.21-.93,2.47-1.79,4.31-3.13,0,1.99,0,2.91,0,4.15,0,42.68-.04,85.35,.07,128.03,0,3.25-.55,4.59-4.2,4.34-5.14-.35-10.3-.43-15.44-.05-3.73,.28-4.93-.4-4.9-4.15,.17-25.75,.1-51.5,.1-77.25,0-1.67,0-3.24,0-5.69Z"/><path class="e" d="M916.69,553.21c23.22,45.5,46.12,90.39,69.4,136.01-9.1,0-17.63,0-26.16,0-1.75,0-1.86-1.56-2.41-2.64-4.36-8.44-8.75-16.85-12.96-25.36-1.17-2.36-2.51-3.27-5.24-3.24-15.28,.16-30.56,.13-45.84,.04-2.32-.01-3.46,.62-4.53,2.82-4.27,8.79-8.98,17.37-13.28,26.15-.98,2-2.21,2.28-4.05,2.27-6.92-.04-13.84-.17-20.75,.05-3.43,.11-3.53-.8-2.11-3.55,9.04-17.48,17.97-35.02,26.92-52.55,13-25.46,25.98-50.93,38.98-76.4,.52-1.02,1.13-1.99,2.04-3.59Zm-16.56,85.9h32.96c-5.54-10.84-10.88-21.28-16.5-32.27-5.64,11.05-10.91,21.39-16.46,32.27Z"/><path class="e" d="M463.13,601.9c-4.09,8.05-7.91,15.55-11.7,23.08-.97,1.92-2.69,1.35-4.18,1.35-12.82,.04-25.65,.14-38.47-.06-2.27-.04-4.1,1.78-4.08,4.05,.18,18.17,.04,36.35,.18,54.52,.03,3.45-.74,4.42-5.93,3.64-4.34-.66-8.76-.64-13.11-.03-4.25,.6-5.36,.17-5.35-2.73,.07-32.45-.28-64.91,.21-97.36,.31-20.71,16.04-35.65,37.11-35.95,22.36-.32,44.72-.02,67.08-.14,3.47-.02,3.08,1.19,1.89,3.47-3.26,6.25-6.52,12.5-9.55,18.86-1.12,2.36-2.83,2.38-4.92,2.37-17.89-.04-35.78,.27-53.66-.15-7.76-.18-13.82,5.85-13.76,13.71,.09,11.37-.07,11.37,11.44,11.37h46.79Z"/><path class="e" d="M499.95,552.85c23.34,45.75,46.3,90.75,69.57,136.35-8.99,0-17.29-.06-25.58,.04-2.43,.03-2.69-1.93-3.4-3.32-8.47-16.48-16.86-33.01-25.29-49.52-4.96-9.72-9.96-19.42-15.28-29.8-3.07,5.99-5.92,11.52-8.76,17.07-10.73,20.99-21.46,41.98-32.17,62.97-.74,1.44-1.31,2.63-3.4,2.6-8.19-.15-16.38-.06-25.23-.06,23.18-45.45,46.15-90.46,69.54-136.33Z"/><path class="e" d="M748.47,553.18c0,30.42,.29,60.11-.14,89.79-.18,12.54,8.67,22.42,21.58,21.89,10.5-.43,21.04,.14,31.57,0,3.07-.04,3.9,.84,3.76,3.87-.26,5.9-.1,11.82-.08,17.73,0,1.53,.06,2.87-2.16,2.8-14.39-.44-28.86,1.17-43.17-.83-18.05-2.53-33.27-18.9-35.11-37.06-1.49-14.66-.41-29.36-.63-44.05-.19-12.54-.04-25.08-.03-37.62,0-1.7-.22-3.24,1.87-4.32,7.38-3.82,14.63-7.89,22.53-12.19Z"/><path class="e" d="M714.5,621.18c0,21.33-.07,42.66,.07,64,.02,3.07-.46,4.32-3.91,4.1-5.46-.34-10.96-.28-16.42-.02-3.16,.15-4.14-.64-4.09-3.97,.2-14.84,.09-29.69,.09-44.54,0-24.07,.08-48.14-.09-72.21-.02-3.3,1.1-4.88,3.95-6.1,5.54-2.38,11.07-4.83,16.38-7.67,3.32-1.78,4.15-1.6,4.12,2.42-.16,21.33-.08,42.66-.08,64Z"/><path class="e" d="M838.34,581.18c0,35.8-.02,70.52,.05,105.25,0,2.35-.8,2.86-2.98,2.81-6.19-.13-12.4-.15-18.59,0-2.35,.06-2.87-.79-2.87-2.97,.06-34.57,.04-69.15,.04-104.7,3.71,3.88,7.53,6.36,12.27,6.26,4.63-.11,8.55-2.09,12.07-6.64Z"/></g><polygon class="b" points="695.64 551.6 711.95 523.7 720.89 530.38 710.28 547.18 695.64 551.6"/><circle class="d" cx="826.16" cy="567.17" r="14.72"/><text class="c" transform="translate(387.02 529.6)"><tspan class="f" x="0" y="0">IGRE</tspan><tspan class="g" x="102.33" y="0">J</tspan><tspan class="f" x="122.91" y="0">A</tspan></text></svg>